PathFileType	4	(x/y/z)	S08_P20_T07
DataRate	CameraRate	NumFrames	NumMarkers	Units	OrigDataRate	OrigDataStartFrame	OrigNumFrames
240	240	4	51	mm	240	280	373
Frame#	Time	Sternum			R.Acromium			L.Acromium			Top.Head			R.ASIS			L.ASIS			R.PSIS			L.PSIS			R.Great.Tro			L.Great.Tro			R.Iliac.Crest			L.Iliac.Crest			V.Sacral			R.Thigh.Upper.Post			R.Thigh.Lower.Ant			R.Thigh.Lower.Post			R.Thigh.Upper.Ant			R.Knee.Lat			R.Knee.Med			R.Shank.Upper.Post			R.Shank.Lower.Ant			R.Shank.Lower.Post			R.Shank.Upper.Ant			R.Ankle.Lat			R.Ankle.Med			R.Heel.Upper			R.Heel.Med			R.Heel.Lat			R.Toe.Lat			R.Toe.Med			R.Toe.Tip			L.Thigh.Upper.Post			L.Thigh.Lower.Ant			L.Thigh.Lower.Post			L.Thigh.Upper.Ant			L.Knee.Lat			L.Knee.Med			L.Shank.Upper.Post			L.Shank.Lower.Ant			L.Shank.Lower.Post			L.Shank.Upper.Ant			L.Ankle.Lat			L.Ankle.Med			L.Heel.Upper			L.Heel.Med			L.Heel.Lat			L.Toe.Lat			L.Toe.Med			L.Toe.Tip			Cervical.Spine			Back			
		X1	Y1	Z1	X2	Y2	Z2	X3	Y3	Z3	X4	Y4	Z4	X5	Y5	Z5	X6	Y6	Z6	X7	Y7	Z7	X8	Y8	Z8	X9	Y9	Z9	X10	Y10	Z10	X11	Y11	Z11	X12	Y12	Z12	X13	Y13	Z13	X14	Y14	Z14	X15	Y15	Z15	X16	Y16	Z16	X17	Y17	Z17	X18	Y18	Z18	X19	Y19	Z19	X20	Y20	Z20	X21	Y21	Z21	X22	Y22	Z22	X23	Y23	Z23	X24	Y24	Z24	X25	Y25	Z25	X26	Y26	Z26	X27	Y27	Z27	X28	Y28	Z28	X29	Y29	Z29	X30	Y30	Z30	X31	Y31	Z31	X32	Y32	Z32	X33	Y33	Z33	X34	Y34	Z34	X35	Y35	Z35	X36	Y36	Z36	X37	Y37	Z37	X38	Y38	Z38	X39	Y39	Z39	X40	Y40	Z40	X41	Y41	Z41	X42	Y42	Z42	X43	Y43	Z43	X44	Y44	Z44	X45	Y45	Z45	X46	Y46	Z46	X47	Y47	Z47	X48	Y48	Z48	X49	Y49	Z49	X50	Y50	Z50	X51	Y51	Z51	

280	1.1625	188.16	1239.3	302.87	72.536	1472.6	483.46	47.278	1500.3	148	72.699	1792.3	339.19	159.17	1022.1	410	160.34	1029.3	180.98	-42.096	1044.2	336.61	-37.93	1051.3	243.59	101.54	909.75	479.65	75.14	919.73	111.78	62.923	1087.4	457.98	65.822	1110.6	151.4	-56.477	1006.6	287.16	154.67	712.62	468.85	263.35	646.76	444.39	193.17	631.06	451.6	231.09	734.89	462.65	254.09	544.55	440.93	243.1	543.31	308.25	105.37	431.45	446.07	115.74	343.23	427.15	58.213	370.68	440.13	164.03	404.53	435.96	-46.698	244.46	407.72	-10.678	232.25	332.35	-102.29	245.02	356.78	-109.29	217	329.73	-117.24	224.95	391.01	NaN	NaN	NaN	32.378	98.613	332.44	89.051	72.272	383.2	76.398	704.99	132.93	169.36	624.28	162.34	100.72	618.99	154.32	148.76	707.15	135.68	123.1	521.32	177.21	118.22	523.94	301.5	54.979	343.27	174.05	114.37	252.65	203.92	45.985	271.22	190.7	117.38	327.56	186.55	53.681	102.11	210.06	70.076	103.74	298.66	-3.5603	76.238	256.17	8.0755	40.735	286.07	5.9415	49.345	222.55	183.48	40.987	195.98	198.16	39.131	312.87	263.93	56.634	267.15	-8.4753	1527.7	313.9	-48.868	1244.7	318.95
281	1.1667	193.31	1239.9	302.87	77.788	1473.2	483.44	52.791	1501.1	148.06	78.257	1792.8	339.32	164.16	1022.8	409.91	165.35	1029.7	180.95	-37.064	1044.9	336.63	-32.87	1051.9	243.59	106.99	910.79	479.81	79.907	920.01	111.85	67.99	1088.2	457.92	70.931	1110.9	151.34	-51.439	1007.2	287.24	161.84	713.97	469.18	270.96	649.05	444	200.99	632.73	451.79	237.99	736.9	462.38	262.31	546.57	440.55	250.94	545.36	308.15	115.2	430.88	445.92	127.31	342.81	427.23	69.26	369.2	440.11	174.4	404.99	435.89	-33.208	240.71	407.93	3.0668	229.16	332.56	-89.04	239.5	357.03	-95.268	211.16	330.14	-103.36	219.16	391.4	NaN	NaN	NaN	49.78	96.911	333.24	107.2	72.484	384.04	79.728	705.47	132.86	172.01	624.08	162.5	103.28	619.25	154.34	151.99	707.11	135.93	124.77	521.29	177.27	119.77	523.92	301.6	55.896	343.41	174.1	114.96	252.64	204	46.664	271.43	190.74	118.21	327.54	186.62	53.841	102.23	210.15	69.911	103.75	298.7	-3.4756	76.345	256.19	8.1387	40.787	286.1	5.977	49.456	222.56	183.5	40.983	195.99	198.19	39.034	312.84	263.98	56.476	267.15	-3.0975	1528.3	313.85	-43.702	1245.4	318.71
282	1.1708	198.47	1240.4	302.86	83.048	1473.8	483.42	58.314	1501.8	148.13	83.806	1793.3	339.46	169.17	1023.5	409.82	170.36	1030	180.92	-32.034	1045.5	336.66	-27.819	1052.3	243.6	112.45	911.8	479.99	84.677	920.25	111.93	73.064	1089	457.86	76.03	1111.2	151.28	-46.402	1007.7	287.33	168.9	715.27	469.53	278.44	651.25	443.63	208.67	634.36	451.99	244.8	738.82	462.1	270.35	548.51	440.17	258.58	547.33	308.07	124.99	430.13	445.79	138.89	342.26	427.32	80.32	367.54	440.1	184.72	405.34	435.82	-19.574	236.78	408.14	16.96	225.92	332.78	-75.575	233.77	357.29	-81.01	205.13	330.56	-89.261	213.18	391.79	NaN	NaN	NaN	67.346	95.167	334.02	125.46	72.679	384.87	83.06	705.92	132.79	174.64	623.86	162.65	105.84	619.5	154.35	155.22	707.05	136.18	126.44	521.26	177.34	121.32	523.89	301.7	56.821	343.55	174.16	115.56	252.62	204.09	47.351	271.64	190.76	119.04	327.51	186.7	54	102.36	210.24	69.755	103.75	298.73	-3.3888	76.452	256.22	8.2207	40.837	286.15	6.0138	49.568	222.57	183.53	40.978	196	198.23	38.943	312.81	264.03	56.323	267.14	2.2865	1528.8	313.81	-38.53	1246.1	318.47
283	1.175	203.64	1240.9	302.86	88.317	1474.3	483.4	63.848	1502.5	148.2	89.347	1793.8	339.6	174.18	1024.2	409.75	175.36	1030.2	180.89	-27.008	1046	336.71	-22.777	1052.8	243.63	117.9	912.76	480.18	89.448	920.45	112.03	78.146	1089.7	457.82	81.121	1111.5	151.25	-41.365	1008.2	287.44	175.87	716.52	469.88	285.78	653.35	443.25	216.22	635.91	452.19	251.51	740.65	461.81	278.22	550.36	439.8	266.03	549.22	308.01	134.74	429.23	445.68	150.48	341.61	427.41	91.398	365.71	440.1	194.99	405.59	435.75	-5.7898	232.68	408.37	31.004	222.54	332.99	-61.888	227.87	357.56	-66.507	198.96	330.97	-74.944	207.02	392.16	NaN	NaN	NaN	85.063	93.392	334.79	143.82	72.863	385.68	86.388	706.36	132.73	177.27	623.63	162.82	108.41	619.73	154.36	158.44	706.98	136.42	128.12	521.22	177.39	122.88	523.85	301.79	57.754	343.69	174.21	116.16	252.6	204.17	48.047	271.85	190.78	119.89	327.48	186.77	54.159	102.48	210.34	69.615	103.76	298.76	-3.3001	76.559	256.24	8.3147	40.887	286.21	6.0522	49.681	222.59	183.55	40.97	196.01	198.25	38.855	312.77	264.08	56.175	267.13	7.6784	1529.3	313.77	-33.351	1246.7	318.23
